<svg width="800" height="600" xmlns="http://www.w3.org/2000/svg">
  <!-- шГМцЩп -->
  <rect width="800" height="600" fill="#f5f5f5"/>
  
  <!-- щГих▒ЛуБохгБ -->
  <rect x="50" y="50" width="700" height="500" fill="white" stroke="#333" stroke-width="3"/>
  
  <!-- хЕеуВКхПг -->
  <rect x="350" y="545" width="100" height="10" fill="#f5f5f5"/>
  <text x="400" y="580" text-anchor="middle" font-size="14" fill="#666">хЕехПг</text>
  
  <!-- уГЗуВ╣уВпуВиуГкуВв1 (х╖жф╕К) -->
  <rect x="100" y="100" width="120" height="60" fill="#e0e0e0" stroke="#999" stroke-width="2" rx="5"/>
  <rect x="100" y="180" width="120" height="60" fill="#e0e0e0" stroke="#999" stroke-width="2" rx="5"/>
  <rect x="100" y="260" width="120" height="60" fill="#e0e0e0" stroke="#999" stroke-width="2" rx="5"/>
  
  <!-- уГЗуВ╣уВпуВиуГкуВв2 (х╖жф╕Л) -->
  <rect x="100" y="360" width="120" height="60" fill="#e0e0e0" stroke="#999" stroke-width="2" rx="5"/>
  <rect x="100" y="440" width="120" height="60" fill="#e0e0e0" stroke="#999" stroke-width="2" rx="5"/>
  
  <!-- уГЗуВ╣уВпуВиуГкуВв3 (ф╕нхдоф╕К) -->
  <rect x="280" y="100" width="120" height="60" fill="#e0e0e0" stroke="#999" stroke-width="2" rx="5"/>
  <rect x="280" y="180" width="120" height="60" fill="#e0e0e0" stroke="#999" stroke-width="2" rx="5"/>
  <rect x="280" y="260" width="120" height="60" fill="#e0e0e0" stroke="#999" stroke-width="2" rx="5"/>
  
  <!-- уГЗуВ╣уВпуВиуГкуВв4 (ф╕нхдоф╕Л) -->
  <rect x="280" y="360" width="120" height="60" fill="#e0e0e0" stroke="#999" stroke-width="2" rx="5"/>
  <rect x="280" y="440" width="120" height="60" fill="#e0e0e0" stroke="#999" stroke-width="2" rx="5"/>
  
  <!-- уГЗуВ╣уВпуВиуГкуВв5 (хП│ф╕К) -->
  <rect x="460" y="100" width="120" height="60" fill="#e0e0e0" stroke="#999" stroke-width="2" rx="5"/>
  <rect x="460" y="180" width="120" height="60" fill="#e0e0e0" stroke="#999" stroke-width="2" rx="5"/>
  <rect x="460" y="260" width="120" height="60" fill="#e0e0e0" stroke="#999" stroke-width="2" rx="5"/>
  
  <!-- уГЗуВ╣уВпуВиуГкуВв6 (хП│ф╕Л) -->
  <rect x="460" y="360" width="120" height="60" fill="#e0e0e0" stroke="#999" stroke-width="2" rx="5"/>
  <rect x="460" y="440" width="120" height="60" fill="#e0e0e0" stroke="#999" stroke-width="2" rx="5"/>
  
  <!-- ф╝Ъшн░ход -->
  <rect x="620" y="100" width="110" height="150" fill="#d4e8ff" stroke="#666" stroke-width="2" rx="5"/>
  <text x="675" y="180" text-anchor="middle" font-size="14" fill="#333">ф╝Ъшн░ход</text>
  
  <!-- ф╝СцЖйход -->
  <rect x="620" y="280" width="110" height="120" fill="#ffe4d4" stroke="#666" stroke-width="2" rx="5"/>
  <text x="675" y="345" text-anchor="middle" font-size="14" fill="#333">ф╝СцЖйход</text>
  
  <!-- уГИуВдуГм -->
  <rect x="620" y="430" width="50" height="70" fill="#e8e8ff" stroke="#666" stroke-width="2" rx="5"/>
  <text x="645" y="470" text-anchor="middle" font-size="12" fill="#333">ЁЯЪ╗</text>
  
  <!-- чкУ -->
  <line x1="50" y1="100" x2="50" y2="500" stroke="#87ceeb" stroke-width="8"/>
  <line x1="50" y1="100" x2="50" y2="500" stroke="white" stroke-width="2" stroke-dasharray="20,10"/>
  
  <!-- уВ┐уВдуГИуГл -->
  <text x="400" y="35" text-anchor="middle" font-size="20" font-weight="bold" fill="#333">уВкуГХуВгуВ╣уГмуВдуВвуВжуГИ</text>
</svg>
